<mxfile host="app.diagrams.net" agent="Mozilla/5.0 (Macintosh; Intel Mac OS X 10_15_7) AppleWebKit/537.36 (KHTML, like Gecko) Chrome/126.0.0.0 Safari/537.36" version="24.7.5">
  <diagram id="C5RBs43oDa-KdzZeNtuy" name="Page-1">
    <mxGraphModel dx="1247" dy="713" grid="1" gridSize="10" guides="1" tooltips="1" connect="1" arrows="1" fold="1" page="1" pageScale="1" pageWidth="583" pageHeight="827" math="0" shadow="0">
      <root>
        <mxCell id="WIyWlLk6GJQsqaUBKTNV-0" />
        <mxCell id="WIyWlLk6GJQsqaUBKTNV-1" parent="WIyWlLk6GJQsqaUBKTNV-0" />
        <mxCell id="fOYeoovhFmcz5jTnVl7R-16" style="edgeStyle=orthogonalEdgeStyle;rounded=0;orthogonalLoop=1;jettySize=auto;html=1;exitX=0.5;exitY=1;exitDx=0;exitDy=0;entryX=0.5;entryY=0;entryDx=0;entryDy=0;" edge="1" parent="WIyWlLk6GJQsqaUBKTNV-1" source="WIyWlLk6GJQsqaUBKTNV-3" target="ENvCf0FLttEb4ljnVMvf-1">
          <mxGeometry relative="1" as="geometry" />
        </mxCell>
        <mxCell id="WIyWlLk6GJQsqaUBKTNV-3" value="&lt;b&gt;Collect Raw Data&lt;/b&gt;" style="rounded=1;whiteSpace=wrap;html=1;fontSize=12;glass=0;strokeWidth=1;shadow=0;" parent="WIyWlLk6GJQsqaUBKTNV-1" vertex="1">
          <mxGeometry x="160" y="80" width="120" height="40" as="geometry" />
        </mxCell>
        <mxCell id="fOYeoovhFmcz5jTnVl7R-18" style="edgeStyle=orthogonalEdgeStyle;rounded=0;orthogonalLoop=1;jettySize=auto;html=1;exitX=0.5;exitY=1;exitDx=0;exitDy=0;entryX=0.5;entryY=0;entryDx=0;entryDy=0;" edge="1" parent="WIyWlLk6GJQsqaUBKTNV-1" source="ENvCf0FLttEb4ljnVMvf-1" target="ENvCf0FLttEb4ljnVMvf-2">
          <mxGeometry relative="1" as="geometry" />
        </mxCell>
        <mxCell id="ENvCf0FLttEb4ljnVMvf-1" value="&lt;b&gt;Preprocessing Data:&lt;/b&gt;&lt;div&gt;Text to CSV&amp;nbsp;&lt;/div&gt;&lt;div&gt;Interpolation&lt;/div&gt;&lt;div&gt;Index formatting&lt;/div&gt;" style="rounded=1;whiteSpace=wrap;html=1;fontSize=12;glass=0;strokeWidth=1;shadow=0;" parent="WIyWlLk6GJQsqaUBKTNV-1" vertex="1">
          <mxGeometry x="145" y="140" width="150" height="60" as="geometry" />
        </mxCell>
        <mxCell id="fOYeoovhFmcz5jTnVl7R-21" style="edgeStyle=orthogonalEdgeStyle;rounded=0;orthogonalLoop=1;jettySize=auto;html=1;" edge="1" parent="WIyWlLk6GJQsqaUBKTNV-1" source="ENvCf0FLttEb4ljnVMvf-2" target="ENvCf0FLttEb4ljnVMvf-5">
          <mxGeometry relative="1" as="geometry" />
        </mxCell>
        <mxCell id="ENvCf0FLttEb4ljnVMvf-2" value="&lt;b&gt;EDA:&lt;/b&gt;&lt;div&gt;Trends&lt;/div&gt;&lt;div&gt;Autocorrelation&lt;/div&gt;&lt;div&gt;Correlation&lt;/div&gt;&lt;div&gt;Seasonality&lt;/div&gt;" style="rounded=1;whiteSpace=wrap;html=1;fontSize=12;glass=0;strokeWidth=1;shadow=0;" parent="WIyWlLk6GJQsqaUBKTNV-1" vertex="1">
          <mxGeometry x="140" y="220" width="160" height="70" as="geometry" />
        </mxCell>
        <mxCell id="fOYeoovhFmcz5jTnVl7R-23" value="" style="edgeStyle=orthogonalEdgeStyle;rounded=0;orthogonalLoop=1;jettySize=auto;html=1;" edge="1" parent="WIyWlLk6GJQsqaUBKTNV-1" source="ENvCf0FLttEb4ljnVMvf-5" target="fOYeoovhFmcz5jTnVl7R-11">
          <mxGeometry relative="1" as="geometry" />
        </mxCell>
        <mxCell id="ENvCf0FLttEb4ljnVMvf-5" value="&lt;div&gt;&lt;b&gt;&lt;br&gt;&lt;/b&gt;&lt;/div&gt;&lt;b&gt;Train, validation, test split:&lt;/b&gt;&lt;div&gt;Based on years&lt;/div&gt;&lt;div&gt;&lt;div&gt;&lt;b&gt;&lt;span style=&quot;color: rgba(0, 0, 0, 0); font-family: monospace; font-size: 0px; text-align: start; text-wrap: nowrap;&quot;&gt;Base%3CmxGraphModel%3E%3Croot%3E%3CmxCell%20id%3D%220%22%2F%3E%3CmxCell%20id%3D%221%22%20parent%3D%220%22%2F%3E%3CmxCell%20id%3D%222%22%20value%3D%22EDA%22%20style%3D%22rounded%3D1%3BwhiteSpace%3Dwrap%3Bhtml%3D1%3BfontSize%3D12%3Bglass%3D0%3BstrokeWidth%3D1%3Bshadow%3D0%3B%22%20vertex%3D%221%22%20parent%3D%221%22%3E%3CmxGeometry%20x%3D%22160%22%20y%3D%22240%22%20width%3D%22120%22%20height%3D%2240%22%20as%3D%22geometry%22%2F%3E%3C%2FmxCell%3E%3C%2Froot%3E%3C%2FmxGraphModel%3E&lt;/span&gt;&lt;/b&gt;&lt;/div&gt;&lt;/div&gt;" style="rounded=1;whiteSpace=wrap;html=1;fontSize=12;glass=0;strokeWidth=1;shadow=0;" parent="WIyWlLk6GJQsqaUBKTNV-1" vertex="1">
          <mxGeometry x="150" y="310" width="140" height="50" as="geometry" />
        </mxCell>
        <mxCell id="fOYeoovhFmcz5jTnVl7R-26" value="" style="edgeStyle=orthogonalEdgeStyle;rounded=0;orthogonalLoop=1;jettySize=auto;html=1;" edge="1" parent="WIyWlLk6GJQsqaUBKTNV-1" source="ENvCf0FLttEb4ljnVMvf-9" target="ENvCf0FLttEb4ljnVMvf-10">
          <mxGeometry relative="1" as="geometry" />
        </mxCell>
        <mxCell id="ENvCf0FLttEb4ljnVMvf-9" value="&lt;b&gt;Train Models and Forecast:&lt;/b&gt;&lt;div&gt;Engineer process or training with parameters etc.&lt;/div&gt;" style="rounded=1;whiteSpace=wrap;html=1;fontSize=12;glass=0;strokeWidth=1;shadow=0;" parent="WIyWlLk6GJQsqaUBKTNV-1" vertex="1">
          <mxGeometry x="140" y="460" width="160" height="50" as="geometry" />
        </mxCell>
        <mxCell id="fOYeoovhFmcz5jTnVl7R-27" value="" style="edgeStyle=orthogonalEdgeStyle;rounded=0;orthogonalLoop=1;jettySize=auto;html=1;" edge="1" parent="WIyWlLk6GJQsqaUBKTNV-1" source="ENvCf0FLttEb4ljnVMvf-10" target="ENvCf0FLttEb4ljnVMvf-15">
          <mxGeometry relative="1" as="geometry" />
        </mxCell>
        <mxCell id="fOYeoovhFmcz5jTnVl7R-28" value="" style="edgeStyle=orthogonalEdgeStyle;rounded=0;orthogonalLoop=1;jettySize=auto;html=1;" edge="1" parent="WIyWlLk6GJQsqaUBKTNV-1" source="ENvCf0FLttEb4ljnVMvf-10" target="ENvCf0FLttEb4ljnVMvf-16">
          <mxGeometry relative="1" as="geometry" />
        </mxCell>
        <mxCell id="ENvCf0FLttEb4ljnVMvf-10" value="&lt;div&gt;&lt;b style=&quot;background-color: initial;&quot;&gt;Interpret&amp;nbsp;&lt;/b&gt;&lt;b style=&quot;background-color: initial;&quot;&gt;Results:&lt;/b&gt;&lt;/div&gt;&lt;div&gt;Do the results&amp;nbsp;&lt;span style=&quot;background-color: initial;&quot;&gt;achieve&amp;nbsp;&lt;/span&gt;&lt;span style=&quot;background-color: initial;&quot;&gt;expected accuracy&amp;nbsp;&lt;/span&gt;&lt;span style=&quot;background-color: initial;&quot;&gt;and performance?&lt;/span&gt;&lt;/div&gt;" style="rhombus;whiteSpace=wrap;html=1;shadow=0;fontFamily=Helvetica;fontSize=12;align=center;strokeWidth=1;spacing=6;spacingTop=-4;" parent="WIyWlLk6GJQsqaUBKTNV-1" vertex="1">
          <mxGeometry x="105" y="530" width="230" height="110" as="geometry" />
        </mxCell>
        <mxCell id="fOYeoovhFmcz5jTnVl7R-33" style="edgeStyle=orthogonalEdgeStyle;rounded=0;orthogonalLoop=1;jettySize=auto;html=1;exitX=0.5;exitY=1;exitDx=0;exitDy=0;entryX=0.5;entryY=0;entryDx=0;entryDy=0;" edge="1" parent="WIyWlLk6GJQsqaUBKTNV-1" source="ENvCf0FLttEb4ljnVMvf-15" target="fOYeoovhFmcz5jTnVl7R-32">
          <mxGeometry relative="1" as="geometry" />
        </mxCell>
        <mxCell id="ENvCf0FLttEb4ljnVMvf-15" value="&lt;b&gt;Evaluation:&lt;/b&gt;&lt;div&gt;R2, RMSE, MAE, MAPE&lt;/div&gt;" style="rounded=1;whiteSpace=wrap;html=1;fontSize=12;glass=0;strokeWidth=1;shadow=0;" parent="WIyWlLk6GJQsqaUBKTNV-1" vertex="1">
          <mxGeometry x="150" y="660" width="140" height="40" as="geometry" />
        </mxCell>
        <mxCell id="fOYeoovhFmcz5jTnVl7R-31" style="edgeStyle=orthogonalEdgeStyle;rounded=0;orthogonalLoop=1;jettySize=auto;html=1;exitX=0.5;exitY=0;exitDx=0;exitDy=0;entryX=1;entryY=0.5;entryDx=0;entryDy=0;" edge="1" parent="WIyWlLk6GJQsqaUBKTNV-1" source="ENvCf0FLttEb4ljnVMvf-16" target="ENvCf0FLttEb4ljnVMvf-9">
          <mxGeometry relative="1" as="geometry" />
        </mxCell>
        <mxCell id="ENvCf0FLttEb4ljnVMvf-16" value="&lt;div&gt;&lt;b&gt;Analyse weakness and readjust model:&lt;/b&gt;&lt;/div&gt;Hypertune models and normalise or standardise" style="rounded=1;whiteSpace=wrap;html=1;fontSize=12;glass=0;strokeWidth=1;shadow=0;" parent="WIyWlLk6GJQsqaUBKTNV-1" vertex="1">
          <mxGeometry x="380" y="555" width="170" height="60" as="geometry" />
        </mxCell>
        <mxCell id="fOYeoovhFmcz5jTnVl7R-25" value="" style="edgeStyle=orthogonalEdgeStyle;rounded=0;orthogonalLoop=1;jettySize=auto;html=1;" edge="1" parent="WIyWlLk6GJQsqaUBKTNV-1" source="fOYeoovhFmcz5jTnVl7R-11">
          <mxGeometry relative="1" as="geometry">
            <mxPoint x="220" y="460" as="targetPoint" />
          </mxGeometry>
        </mxCell>
        <mxCell id="fOYeoovhFmcz5jTnVl7R-11" value="&lt;b&gt;Algorithm Selection:&lt;/b&gt;&lt;div&gt;Decision Tree, Linear Regression, Lasso, ARIMA, LSTM&lt;/div&gt;" style="rounded=1;whiteSpace=wrap;html=1;fontSize=12;glass=0;strokeWidth=1;shadow=0;" vertex="1" parent="WIyWlLk6GJQsqaUBKTNV-1">
          <mxGeometry x="145" y="380" width="150" height="60" as="geometry" />
        </mxCell>
        <mxCell id="fOYeoovhFmcz5jTnVl7R-29" value="Yes" style="text;html=1;align=center;verticalAlign=middle;whiteSpace=wrap;rounded=0;" vertex="1" parent="WIyWlLk6GJQsqaUBKTNV-1">
          <mxGeometry x="170" y="630" width="60" height="30" as="geometry" />
        </mxCell>
        <mxCell id="fOYeoovhFmcz5jTnVl7R-30" value="No" style="text;html=1;align=center;verticalAlign=middle;whiteSpace=wrap;rounded=0;" vertex="1" parent="WIyWlLk6GJQsqaUBKTNV-1">
          <mxGeometry x="330" y="560" width="60" height="30" as="geometry" />
        </mxCell>
        <mxCell id="fOYeoovhFmcz5jTnVl7R-32" value="&lt;b&gt;Discuss Results&lt;/b&gt;" style="rounded=1;whiteSpace=wrap;html=1;fontSize=12;glass=0;strokeWidth=1;shadow=0;" vertex="1" parent="WIyWlLk6GJQsqaUBKTNV-1">
          <mxGeometry x="150" y="720" width="140" height="40" as="geometry" />
        </mxCell>
      </root>
    </mxGraphModel>
  </diagram>
</mxfile>
